<svg width="16" height="15" fill="none" xmlns="http://www.w3.org/2000/svg"><path d="M12.313 14a.5.5 0 0 1-.293-.093L8 10.993l-4.018 2.914a.5.5 0 0 1-.768-.565l1.568-4.643L.719 5.913A.5.5 0 0 1 1.001 5h5.012L7.525.346a.5.5 0 0 1 .951 0L9.99 5.002H15a.5.5 0 0 1 .283.913l-4.065 2.784 1.567 4.642a.5.5 0 0 1-.473.66Z" fill="url('#paint0_linear_148_6956')"/><defs><linearGradient id="paint0_linear_148_6956" x1="2.334" y1="1" x2="12.334" y2="14.334" gradientUnits="userSpaceOnUse"><stop stop-color="#F84119"/><stop offset="1" stop-color="#F89F19" stop-opacity=".68"/></linearGradient></defs></svg>