<svg width="16" height="15" viewBox="0 0 16 15" fill="none" xmlns="http://www.w3.org/2000/svg">
<path d="M12.3131 14.0005C12.2079 14.0009 12.1052 13.9681 12.0197 13.9067L8.00064 10.993L3.98158 13.9067C3.89571 13.969 3.79227 14.0024 3.6862 14.002C3.58012 14.0016 3.47692 13.9675 3.39151 13.9046C3.3061 13.8417 3.24291 13.7532 3.21107 13.6521C3.17923 13.5509 3.18039 13.4422 3.21439 13.3417L4.78189 8.69892L0.719389 5.91298C0.631393 5.8527 0.564978 5.76586 0.529849 5.66515C0.49472 5.56444 0.492718 5.45513 0.524134 5.3532C0.555551 5.25127 0.618741 5.16206 0.704471 5.0986C0.790201 5.03514 0.893978 5.00076 1.00064 5.00048H6.01252L7.52501 0.34579C7.5576 0.245297 7.62117 0.157706 7.70662 0.0955837C7.79207 0.0334614 7.895 0 8.00064 0C8.10628 0 8.20921 0.0334614 8.29466 0.0955837C8.38011 0.157706 8.44368 0.245297 8.47627 0.34579L9.98876 5.00204H15.0006C15.1074 5.00199 15.2114 5.03613 15.2974 5.09947C15.3834 5.16281 15.4469 5.25201 15.4785 5.35402C15.5101 5.45603 15.5082 5.56548 15.4731 5.66634C15.438 5.76721 15.3716 5.85419 15.2835 5.91454L11.2194 8.69892L12.786 13.3405C12.8113 13.4156 12.8185 13.4957 12.8068 13.5742C12.7951 13.6526 12.7649 13.7272 12.7187 13.7917C12.6725 13.8561 12.6116 13.9087 12.5411 13.945C12.4706 13.9813 12.3925 14.0003 12.3131 14.0005Z" fill="url(#paint0_linear_148_6956)"/>
<defs>
<linearGradient id="paint0_linear_148_6956" x1="2.33398" y1="1.00049" x2="12.334" y2="14.3338" gradientUnits="userSpaceOnUse">
<stop stop-color="#F84119"/>
<stop offset="1" stop-color="#F89F19" stop-opacity="0.68"/>
</linearGradient>
</defs>
</svg>
